<svg xmlns="http://www.w3.org/2000/svg" viewBox="0 0 421 482">
  <!-- Grand anneau (donut) -->
  <path
    d="
      M120.5,252.5
      m -88.5,0
      a 88.5,88.5 0 1,0 177,0
      a 88.5,88.5 0 1,0 -177,0
      M120.5,252.5
      m -25.5,0
      a 25.5,25.5 0 1,0 51,0
      a 25.5,25.5 0 1,0 -51,0
    "
    fill="white"
    stroke="black"
    stroke-width="6"
    fill-rule="evenodd"
  />
  <!-- Petit cercle décalé encore plus vers la gauche -->
  <circle
    cx="170" cy="108.5" r="38"
    fill="white"
    stroke="black"
    stroke-width="6"
  />
  <!-- Arc intérieur (rayon 120) avec contour noir -->
  <path
    d="M205.4,167.7 A120,120 0 0,1 205.4,337.3"
    fill="none"
    stroke="black"
    stroke-width="44"
    stroke-linecap="round"
  />
  <path
    d="M205.4,167.7 A120,120 0 0,1 205.4,337.3"
    fill="none"
    stroke="white"
    stroke-width="32"
    stroke-linecap="round"
  />
  
  <!-- Arc extérieur (rayon 160) ajusté à x=242.4 -->
  <path
    d="M242.4,134.1 A160,160 0 0,1 242.4,369.9"
    fill="none"
    stroke="black"
    stroke-width="44"
    stroke-linecap="round"
  />
  <path
    d="M242.4,134.1 A160,160 0 0,1 242.4,369.9"
    fill="none"
    stroke="white"
    stroke-width="32"
    stroke-linecap="round"
  />
</svg>